<svg xmlns="http://www.w3.org/2000/svg" viewBox="0 0 1200 900" role="img" aria-labelledby="title description">
  <title id="title">Fresh non-alcoholic drinks</title>
  <desc id="description">A generic original illustration of a citrus and herb drink with fresh produce.</desc>
  <defs>
    <linearGradient id="bg" x1="0" y1="0" x2="1" y2="1"><stop stop-color="#101512"/><stop offset="1" stop-color="#24362a"/></linearGradient>
    <linearGradient id="drink" x1="0" y1="0" x2="0" y2="1"><stop stop-color="#d8b75d"/><stop offset=".55" stop-color="#7f9a52"/><stop offset="1" stop-color="#3d633d"/></linearGradient>
    <radialGradient id="light"><stop stop-color="#b9cf8c" stop-opacity=".32"/><stop offset="1" stop-color="#b9cf8c" stop-opacity="0"/></radialGradient>
    <filter id="shadow"><feDropShadow dx="0" dy="24" stdDeviation="24" flood-color="#000" flood-opacity=".55"/></filter>
  </defs>
  <rect width="1200" height="900" fill="url(#bg)"/>
  <circle cx="585" cy="430" r="410" fill="url(#light)"/>
  <g opacity=".16" stroke="#b9cf8c" fill="none"><path d="M0 700C250 510 450 790 710 590s310-120 490-240"/><path d="M0 770C250 580 450 860 710 660s310-120 490-240"/></g>
  <ellipse cx="600" cy="790" rx="310" ry="60" fill="#070a08" opacity=".58"/>
  <g filter="url(#shadow)">
    <g transform="translate(250 185)">
      <path d="M35 0H315L290 145C350 245 370 350 350 505C330 655 275 730 175 730S20 655 0 505C-20 350 0 245 60 145Z" fill="#d9e4da" fill-opacity=".13" stroke="#dce8de" stroke-width="9"/>
      <path d="M55 300C145 260 220 280 300 235C325 340 320 470 300 520C270 630 230 680 175 680S80 625 52 520C30 420 30 350 55 300Z" fill="url(#drink)"/>
      <path d="M65 130H285" stroke="#d6ad5c" stroke-opacity=".5" stroke-width="8"/>
      <path d="M175 300V-80" stroke="#d6ad5c" stroke-width="12" stroke-linecap="round"/>
      <path d="M175 90C115 40 76 55 55 112C115 120 160 112 175 90Z" fill="#7b9b59"/>
      <path d="M180 145C230 90 280 100 305 150C252 170 205 165 180 145Z" fill="#91ad68"/>
    </g>
    <g transform="translate(810 285)">
      <circle r="170" fill="#d79335" stroke="#edc26f" stroke-width="12"/>
      <circle r="130" fill="none" stroke="#f1d39c" stroke-width="8" opacity=".65"/>
      <path d="M-150 0H150M0-150V150" stroke="#f1d39c" stroke-width="7" opacity=".55"/>
    </g>
    <g transform="translate(845 640)">
      <path d="M-160 20C-95-100-35-85 5 18C55-92 125-95 175 5C120 110-110 120-160 20Z" fill="#65854c" stroke="#9ab477" stroke-width="7"/>
      <path d="M0 5C-15 45-20 75-15 105M20 10C45 42 55 70 52 100" fill="none" stroke="#b2c990" stroke-width="6"/>
    </g>
  </g>
  <rect x="42" y="42" width="1116" height="816" rx="24" fill="none" stroke="#b9cf8c" stroke-opacity=".2" stroke-width="2"/>
</svg>
